<?xml version="1.0" encoding="utf-8"?>
<!-- Generator: Adobe Illustrator 16.0.0, SVG Export Plug-In . SVG Version: 6.00 Build 0)  -->
<!DOCTYPE svg PUBLIC "-//W3C//DTD SVG 1.1//EN" "http://www.w3.org/Graphics/SVG/1.1/DTD/svg11.dtd">
<svg version="1.1" id="Calque_1" xmlns="http://www.w3.org/2000/svg" xmlns:xlink="http://www.w3.org/1999/xlink" x="0px" y="0px"
	 width="350px" height="350px" viewBox="0 0 350 350" enable-background="new 0 0 350 350" xml:space="preserve">
<rect x="10.618" y="210.769" fill="none" width="328.383" height="56.14"/>
<text transform="matrix(1 0 0 1 10.6177 252.7236)"><tspan x="0" y="0" fill="#FFFFFF" font-family="'HelveticaNeue-Light'" font-size="58.7589">Beauty</tspan><tspan x="176.333" y="0" fill="#FFFFFF" font-family="'HelveticaNeue-Bold'" font-size="58.7589">Food</tspan></text>
<g>
	<g>
		<g>
			<g>
				<g>
					<path fill="#FFFFFF" d="M236.363,121.667c0.165,2.185,0.393-0.669,0.504-3.167c0,0-0.158-0.556-0.366-1.104
						c-0.196-0.547-0.393-1.094-0.393-1.094s0.027,0.334,0.068,0.836c0.052,0.501,0.092,1.171,0.102,1.843
						C236.321,120.325,236.363,121.667,236.363,121.667z"/>
					<path fill="#FFFFFF" d="M235.508,109.624c0,0-0.106-0.367-0.266-0.918c-0.17-0.549-0.347-1.288-0.613-2.006
						c-0.499-1.436-0.997-2.873-0.997-2.873s0.323,1.042,0.646,2.088c0.16,0.524,0.32,1.049,0.44,1.442
						c0.101,0.398,0.168,0.664,0.168,0.664c0.269,2.423,0.071,2.284-0.244,1.333c-0.158-0.476-0.346-1.155-0.521-1.825
						c-0.201-0.666-0.399-1.318-0.531-1.754c0.51,1.902,0.728,3.046,0.938,3.678c0.199,0.634,0.326,0.768,0.423,0.695
						C235.146,110.004,235.217,109.026,235.508,109.624z"/>
					<path fill="#FFFFFF" d="M232.052,98.195c-1.285-3.664-1.343-2.468-0.852-0.928C231.459,97.439,232.447,99.78,232.052,98.195z"
						/>
					<path fill="#FFFFFF" d="M103.817,161.636c-0.53-0.989-1.185-2.123-0.987-2.028
						C102.111,158.591,101.816,158.456,103.817,161.636z"/>
					<path fill="#FFFFFF" d="M102.83,159.608c0.146,0.189,0.307,0.396,0.492,0.636c-0.143-0.204-0.263-0.376-0.428-0.612
						C102.84,159.577,102.854,159.619,102.83,159.608z"/>
					<path fill="#FFFFFF" d="M107.196,86.315c0.495-0.914,0.956-1.719,1.399-2.464c0.47-0.727,0.938-1.384,1.395-2.038
						c0.447-0.663,0.946-1.277,1.46-1.938c0.518-0.659,1.034-1.379,1.669-2.132l1.823-1.317c2.816-3.172,0.926-1.702,2.979-4.041
						c0.382-0.307,0.805-0.668,1.256-1.066c0.465-0.383,0.965-0.795,1.486-1.224c1.009-0.893,2.172-1.76,3.246-2.637
						c1.098-0.846,2.174-1.615,3.052-2.264c0.913-0.6,1.632-1.073,2.019-1.327c1.203-0.488-1.168,1.143-1.608,1.595
						c1.024-0.707,1.758-1.254,2.366-1.729c0.619-0.452,1.125-0.821,1.658-1.21c0.534-0.393,1.1-0.809,1.906-1.26
						c0.804-0.452,1.789-1.054,3.225-1.672l0.153,0.085c3.309-1.713,7.024-3.22,11.017-4.348c3.994-1.121,8.254-1.879,12.608-2.212
						c8.718-0.692,17.746,0.383,25.806,2.756c-1.07-0.396-0.772-0.385-1.164-0.615c8.565,2.451,17.232,6.973,24.386,12.718
						c3.589,2.855,6.826,5.972,9.657,9.119c2.827,3.152,5.235,6.34,7.292,9.301c-1.22-2.133-2.811-4.538-4.591-7.076
						c-1.853-2.484-3.927-5.085-6.25-7.474c-4.621-4.793-10.074-8.824-14.632-10.924c-0.758-0.531-1.638-1.113-2.588-1.623
						c-0.958-0.496-1.944-1.001-2.885-1.445c-0.952-0.418-1.84-0.813-2.565-1.172c-0.726-0.358-1.312-0.629-1.618-0.899
						c-6.622-2.744-11.67-3.596-16.578-4.099c-4.928-0.436-9.811-0.481-16.595,0.114c-1.95,0.127-1.037-0.226-1.627-0.403
						c0,0,0.671-0.121,1.687-0.234c1.017-0.088,2.371-0.261,3.732-0.342c1.362-0.051,2.726-0.162,3.75-0.148
						c1.024,0.002,1.708,0.004,1.708,0.004s-0.416-0.023-1.04-0.059c-0.624-0.038-1.457-0.09-2.291-0.078
						c-0.835-0.004-1.67-0.009-2.296-0.013c-0.627-0.009-1.043,0.028-1.043,0.028c0.716-0.134,1.699-0.158,2.779-0.219
						c0.541-0.022,1.105-0.045,1.673-0.068c0.569,0.004,1.142,0.009,1.699,0.013c2.23-0.035,4.193,0.128,4.619-0.097
						c-4.82-0.171-11.081-0.091-17.1,0.847c-6.015,0.936-11.71,2.756-15.449,4.611c3.669-1.348,8.315-2.907,12.884-3.71
						c2.028-0.252,5.165-0.491,4.988-0.218c-3.251,0.515-6.294,1.303-9.259,2.073c-2.932,0.893-5.801,1.774-8.57,2.955
						c-1.41,0.525-2.754,1.212-4.144,1.822c-1.343,0.706-2.738,1.345-4.067,2.148c-2.721,1.496-5.35,3.322-8,5.364
						c-2.684,2.023-5.996,5.146-6.562,5.361c1.541-1.588,0.192-0.582,1.431-1.926c-1.662,1.73-1.591,1.969-1.741,2.366
						c-0.151,0.395-0.513,0.948-2.868,3.43c0,0-0.015-0.31-0.03-0.619c-0.01-0.308-0.02-0.616-0.02-0.616
						c-0.572,1.341-2.013,2.868-3.522,4.715c-1.539,1.817-3.146,3.956-4.226,6.177c-0.615,0.659-0.54,0.272-0.042-0.68
						c0.49-0.956,1.394-2.482,2.514-4.021c-1.335,1.703-1.886,2.755-2.37,3.71c-0.505,0.943-0.87,1.836-1.728,3.322
						c0,0,0.248-0.798,0.497-1.596c0.236-0.81,0.538-1.59,0.538-1.59c-1.331,3.487-3.38,5.668-4.473,7.499
						c0.071,0.302,1.338-1.238-0.552,2.959c-0.812,1.807-0.613,0.799-0.879,1.193c0.037,0.152-0.021,0.646-0.225,1.453
						c-0.173,0.818-0.46,1.96-0.94,3.399c-0.412,0.458,0.298-2.025,0.127-2.301c-0.766,2.182-1.188,4.018-1.843,5.579
						c-0.722,4.031,0.401-0.171,0.099,2.317c-0.416,1.503-0.579,2.306-0.756,2.667c-0.162,0.364-0.269,0.3-0.364,0.11
						c-0.191-0.377-0.335-1.265-0.795-0.162c0.065-0.596,0.126-1.215,0.213-1.843c0.11-0.625,0.222-1.26,0.333-1.896
						c0.206-1.282,0.52-2.547,0.815-3.748c0.269-1.209,0.625-2.32,0.909-3.302c0.274-0.984,0.534-1.818,0.739-2.433
						c0,0-0.216,0.538-0.486,1.363c-0.26,0.828-0.607,1.932-0.955,3.037c-0.292,1.119-0.585,2.237-0.805,3.077
						c-0.117,0.417-0.183,0.773-0.235,1.02c-0.052,0.248-0.081,0.389-0.081,0.389c-0.077-0.307-0.549,1.189-0.899,2.167
						c-0.18,0.487-0.285,0.853-0.343,0.784c-0.054-0.069-0.039-0.568,0.182-1.782c-1.146,4.511-1.782,9.656-1.783,14.745
						c-0.019,5.091,0.586,10.116,1.506,14.462c-0.139-1.256-0.33-2.86-0.098-2.631c0.917,4.483,0.509,4.041,0.51,5.009
						c0.944,3.275,1.368,2.772,2.278,4.655c0.776,3.382,1.469,5.25,2.099,6.992c0.294,0.882,0.639,1.707,1.004,2.678
						c0.178,0.487,0.368,1.008,0.578,1.583c0.226,0.566,0.473,1.187,0.75,1.882l0.272-0.552c0.753,1.974,1.477,2.958,2.173,3.987
						c0.344,0.519,0.724,1.025,1.158,1.647c0.436,0.62,0.881,1.384,1.464,2.352c0.037,0.275-1.017-1.1-1.86-2.219
						c0.576,0.824,0.967,1.443,1.266,1.962c0.313,0.508,0.544,0.908,0.766,1.312c0.456,0.797,0.866,1.623,2.176,3.096
						c0,0-0.592-0.531-1.184-1.061c-0.568-0.556-1.137-1.111-1.137-1.111c0.891,1.303,2.18,2.765,2.988,3.842
						c0.863,1.033,1.304,1.646,0.59,1.185c1.974,1.952,4.682,4.611,7.676,7.201c1.491,1.303,3.098,2.53,4.663,3.702
						c1.61,1.11,3.169,2.176,4.674,3.002l-0.613,0.116c0.817,0.375,1.907,1.007,3.182,1.676c1.249,0.716,2.687,1.451,4.119,2.172
						c1.432,0.716,2.897,1.335,4.173,1.853c1.299,0.465,2.417,0.817,3.185,0.951l0.434,0.331c0,0,0.429,0.106,1.072,0.268
						c0.646,0.151,1.491,0.396,2.357,0.564c0.863,0.17,1.726,0.34,2.373,0.468c0.643,0.136,1.079,0.192,1.079,0.192
						c3.073,0.763,1.893,1.15,2.179,1.033c6.872,1.375,12.372,1.547,16.869,1.719c1.122-0.533,8.438-0.991,14.079-2.423
						c6.846-1.39,13.61-3.886,19.854-7.39c6.241-3.505,11.976-7.981,16.829-13.188c2.451-2.579,4.665-5.356,6.647-8.251
						c1.023-1.426,1.909-2.935,2.824-4.411c0.833-1.525,1.709-3.016,2.429-4.578c0.784-1.528,1.425-3.113,2.092-4.669
						c0.312-0.787,0.592-1.585,0.886-2.372c0.305-0.784,0.567-1.579,0.807-2.378c1.053-3.166,1.758-6.381,2.33-9.538
						c0.764-3.781,0.721-9.125,0.416-13.852c-0.072,1.451-0.109,2.571-0.126,3.528c-0.049,0.955-0.09,1.745-0.13,2.532
						c-0.019,0.79-0.07,1.574-0.177,2.514c-0.104,0.94-0.182,2.047-0.46,3.451c-0.893,4.206-1.932,5.588-3.299,8.965
						c-0.001,0,0.265-0.401,0.499-0.815c0.243-0.413,0.486-0.826,0.486-0.826c-1.337,5.624-1.414,3.695-2.61,8.113l-0.646-0.476
						c-0.141,0.803-0.696,2.09-1.337,3.338c-0.701,1.22-1.434,2.425-1.931,3.086l-0.267,1.548c-2.061,2.98-3.553,4.801-4.583,5.397
						l0.604,0.004c-0.266,0.226-0.862,1.067-1.696,2.054c-0.405,0.502-0.852,1.054-1.304,1.614
						c-0.479,0.538-0.964,1.084-1.421,1.598c-0.899,1.039-1.789,1.848-2.251,2.218c-0.471,0.364-0.551,0.252,0.024-0.656
						c-0.624,0.824-1.085,1.7-2.785,3.209l-0.585-0.123c-2.295,2.302-5.119,4.615-6.051,4.924c1.349-1.136,1.65-1.704,1.976-2.218
						c-0.668,0.527-1.261,0.995-1.789,1.412c-0.538,0.401-1.01,0.754-1.424,1.063c-0.816,0.635-1.394,1.112-1.823,1.459
						c-0.845,0.717-1,1.062-1.111,1.383c-0.119,0.312-0.168,0.643-0.887,1.233c-0.718,0.591-2.044,1.556-4.808,2.938l-0.013-0.353
						c0-0.001-0.652,0.438-1.335,0.823c-0.678,0.399-1.355,0.799-1.355,0.799s-0.781,0.266-1.589,0.456
						c-0.799,0.206-1.597,0.412-1.597,0.412c-1.866,1.301-6.008,2.743-10.65,3.573c-4.639,0.875-9.709,1.174-13.435,1.451
						c-2.949,0.072-6.785-0.613-12.243-1.463l0.274,0.55c-2.185-0.575-7.347-1.86-12.159-3.923
						c-4.825-2.035-9.219-4.802-10.659-6.366c-3.73-1.787,0.305,0.33,0.049,0.598c-0.454-0.228-0.881-0.441-1.283-0.643
						c-0.389-0.228-0.755-0.44-1.1-0.642c-0.686-0.411-1.289-0.774-1.812-1.125c-1.022-0.735-1.774-1.34-2.41-1.894
						c-1.213-1.183-2.036-2.071-3.508-3.583c-3.907-3.057,2.738,2.62,0.488,1.163c-1.388-1.312-2.387-2.199-3.179-2.941
						c-0.818-0.706-1.45-1.251-2.127-1.835c-0.655-0.601-1.414-1.188-2.287-2.174c-0.446-0.484-0.945-1.045-1.52-1.715
						c-0.544-0.694-1.152-1.507-1.852-2.46c-0.35-0.907,1.647,1.812,2.417,2.435c-2.31-2.38-5.204-6.201-7.691-10.731
						c-2.51-4.52-4.522-9.742-5.89-14.488c-1.39-5.476-2.35-12.461-2.059-19.667c0.102-3.601,0.554-7.241,1.268-10.736
						c0.699-3.498,1.668-6.857,2.857-9.895L101,99.476c2.17-4.968,4.393-10.449,8.095-15.624c0,0-0.127,0.147-0.301,0.38
						c-0.177,0.231-0.413,0.539-0.649,0.847C107.67,85.697,107.196,86.315,107.196,86.315z"/>
					<path fill="#FFFFFF" d="M174.467,49.979l-1.055-0.556c0,0-0.402-0.033-1.004-0.082c-0.604-0.02-1.41-0.047-2.216-0.074
						c-1.608-0.083-3.216-0.016-3.216-0.016c0.648,0.104,1.218,0.155,1.764,0.203c0.545,0.062,1.066,0.1,1.62,0.132
						c0.554,0.03,1.138,0.062,1.807,0.099C172.833,49.747,173.582,49.849,174.467,49.979z"/>
					<path fill="#FFFFFF" d="M172.956,51.082c0,0,0.824,0.055,1.648,0.109c0.413,0.027,0.826,0.055,1.136,0.076
						c0.308,0.036,0.513,0.06,0.513,0.06s-0.327-0.073-0.825-0.125c-0.498-0.06-1.161-0.14-1.825-0.22
						c-1.324-0.187-2.66-0.258-2.659-0.258c0,0,0.504,0.08,1.009,0.16C172.456,50.965,172.956,51.082,172.956,51.082z"/>
					<path fill="#FFFFFF" d="M104.189,83.51l0.5-0.658c0,0,0.098-0.162,0.268-0.446c0.177-0.279,0.398-0.701,0.723-1.167
						c0.649-0.931,1.429-2.238,2.359-3.438c0.451-0.61,0.903-1.221,1.326-1.794c0.449-0.553,0.868-1.069,1.227-1.511
						c0.361-0.442,0.661-0.811,0.872-1.068c0.207-0.261,0.341-0.396,0.341-0.396s-0.144,0.144-0.367,0.421
						c-0.227,0.274-0.55,0.665-0.938,1.134c-0.798,0.92-1.777,2.215-2.741,3.518c-0.96,1.306-1.845,2.665-2.516,3.676
						C104.611,82.818,104.189,83.51,104.189,83.51z"/>
					<path fill="#FFFFFF" d="M103.212,161.485c-0.469-0.541-0.986-1.241-1.446-1.983c-0.456-0.746-0.907-1.501-1.341-2.106
						c0,0,0.768,1.228,1.536,2.456c0.825,1.188,1.649,2.377,1.649,2.377L103.212,161.485z"/>
					<path fill="#FFFFFF" d="M147.362,194.733c2.351-0.22,4.344,0.96,1.593-0.332C145.505,193.735,148.405,194.713,147.362,194.733z
						"/>
					<path fill="#FFFFFF" d="M160.576,195.569c-1.998-0.187-3.125-0.114-4.23-0.167
						C158.955,196.037,159.092,195.587,160.576,195.569z"/>
				</g>
			</g>
		</g>
	</g>
</g>
<path fill="none" d="M182.975,126.664c1.392,1.285,2.783,2.569,4.176,3.853c0.187-0.202,0.373-0.404,0.56-0.606
	c-1.37-1.306-2.74-2.611-4.109-3.917C183.393,126.217,183.184,126.441,182.975,126.664z"/>
<path fill="none" d="M182.539,146.875c0.529,2.605,1.485,5.013,3.277,7.035c0.166-0.104,0.332-0.208,0.496-0.312
	c-1.069-2.328-2.14-4.655-3.209-6.984C182.915,146.701,182.728,146.789,182.539,146.875z"/>
<path fill="none" d="M150.766,120.808c-0.155-0.03-0.311-0.054-0.464-0.088c-0.326-0.073-0.625-0.266-1.169-0.508
	c-0.599,2.199-2.496,1.966-4.143,2.371c0,0-0.002,0-0.003,0.001c0.279,0.553,0.54,1.127,0.762,1.743
	c1.277,3.522,2.625,7.024,3.975,10.526c0.004-0.001,0.009-0.004,0.014-0.006c1.627-0.521,3.314-0.863,5.01-1.169
	c-0.935-2.624-1.852-5.255-2.751-7.893C151.428,124.118,150.994,122.456,150.766,120.808z"/>
<path fill="none" d="M178.396,105.835c0.75,4.635,0.444,5.229-4.005,7.506c-0.979-2.432-1.957-4.854-2.934-7.277
	c-0.141,0.05-0.28,0.1-0.419,0.148c0.659,2.003,1.328,4.002,1.974,6.01c0.227,0.71,0.508,1.431,0.556,2.162
	c0.033,0.489-0.229,1.382-0.483,1.429c-0.588,0.109-1.351-0.03-1.855-0.358c-0.527-0.344-0.835-1.025-1.448-1.835
	c0,1.768,0.165,3.212-0.068,4.589c-0.121,0.708-0.952,1.294-1.462,1.936c-0.231-0.191-0.493-0.365-0.747-0.543
	c0.527,1.369,1.05,2.739,1.579,4.107c1.77,4.576,3.463,9.228,5.882,13.504c-0.036-2.781-2.263-4.61-3.124-7.03
	c2.696-2.238,3.487-2.095,6.941,1.119c-0.396-0.689-0.788-1.381-1.188-2.069c-1.318-2.275-0.138-4.446,2.557-4.36
	c1.341,0.042,2.348,0.024,2.899-1.363c0.07-0.176,0.355-0.279,0.555-0.388c0.87-0.479,1.376-0.758,1.715-1.06
	c-2.346-6.282-4.739-12.546-7.152-18.803c-0.042,0.01-0.085,0.02-0.128,0.029C178.157,104.136,178.258,104.988,178.396,105.835z"/>
<path fill="#EB5E51" d="M173.576,84.77c2.19,0.483,0.614,2.517,0.995,3.804c0.107,0.361,0.083,0.761,0.157,1.554
	c1.201-1.851,0.105-4.677,2.594-5.113c1.806-0.316,3.981-0.977,5.149,0.908c1.967,0,3.696-0.142,5.395,0.03
	c3.66,0.369,7.351,0.683,10.932,1.462c1.587,0.345,2.814,1.544,4.814,1.047c1.062-0.264,2.498,1.068,3.797,1.604
	c0.622,0.257,1.312,0.363,1.98,0.49c2.6,0.496,5.243,0.823,7.789,1.511c1.077,0.292,2.396,0.784,3.068,1.619
	c-10.229-20.191-31.165-34.04-55.347-34.04c-1.027,0-2.048,0.028-3.063,0.077c3.208,8.357,6.415,16.716,9.619,25.075
	C172.187,84.675,172.906,84.622,173.576,84.77z"/>
<path fill="#EB5E51" d="M220.628,94.429c0.063,0.251,0.081,0.522,0.027,0.821c-0.183,1.003-2.716,2.411-3.982,2.226
	c-3.556-0.52-6.184,1.496-9.186,2.471c-1.579,0.514-1.877,0.304-1.625-1.29c0.043-0.271,0.007-0.554-0.295-0.947
	c-0.45,0.95-0.949,1.88-1.339,2.853c-0.7,1.758-1.913,2.672-3.843,2.65c-0.682-0.007-1.433,0.023-2.031,0.299
	c-1.216,0.559-2.099,0.494-2.677-1.263c-1.243,2.485-3.132,3.474-5.545,3.55c-1.878,0.06-2.547-0.452-2.686-2.339
	c-0.1-1.345-0.02-2.704-0.02-4.057c-0.205-0.019-0.411-0.038-0.616-0.058c-0.23,1.134-0.778,2.314-0.625,3.394
	c0.309,2.166-0.639,3.556-2.198,4.728c-0.872,0.654-1.817,1.212-2.912,1.935c-0.887-2.164-1.719-4.196-2.551-6.228
	c-0.118,0.027-0.238,0.055-0.357,0.083c2.413,6.257,4.807,12.521,7.152,18.803c0.474-0.422,0.622-0.889,0.97-2.009
	c0.323,0,0.66-0.018,0.994,0.005c0.278,0.019,0.553,0.083,0.797,0.122c1.055-1.699,1.055-1.699,3.521-0.328
	c-0.073-0.226-0.089-0.383-0.169-0.498c-0.638-0.928-2.174-1.462-1.433-3c0.52-1.078,3.687-2.42,4.874-2.148
	c0.607,0.138,1.203,0.323,1.809,0.487c0.578-2.814,0.936-3.06,3.793-3.539c0.826-0.138,1.579-0.739,2.354-1.147
	c0.703-0.372,1.386-1.079,2.086-1.092c1.538-0.027,2.752-0.484,3.876-1.512c0.483-0.442,1.218-0.662,1.876-0.851
	c3.118-0.897,3.092-0.91,5.204-3.222c0.971-1.063,2.024-2.079,3.173-2.939c0.518-0.386,1.466-0.609,2.021-0.396
	c0.399,0.155,0.816,1.287,0.636,1.755c-1.053,2.721-2.233,5.396-3.503,8.025c-0.187,0.389-1.064,0.444-1.728,0.693
	c1.207,3.049-0.86,5.114-2.481,7.33c-0.336,0.458-0.96,0.922-0.955,1.377c0.037,3.201-2.013,5.609-3.068,8.385
	c-0.754,1.986-1.725,3.891-2.737,6.141c-0.854-0.976-1.508-1.723-2.162-2.473c0.72,2.104,0.858,4.137-0.048,6.199
	c-0.83,1.888-1.595,3.804-2.492,5.959c-0.58-0.642-0.927-1.027-1.451-1.608c0,1.03,0.035,1.814-0.009,2.593
	c-0.049,0.861-0.061,1.749-0.284,2.571c-0.533,1.956-1.083,2.125-3.234,1.056c-0.612,1.15-1.207,2.322-1.851,3.465
	c-0.343,0.611-0.668,0.966-0.998,1.087c0.272,0.665,0.552,1.326,0.841,1.983c2.367,5.392,4.628,10.919,7.428,16.083
	c14.571-11.35,23.953-29.046,23.953-48.946C226.923,111.894,224.655,102.652,220.628,94.429z"/>
<path fill="#EB5E51" d="M146.322,92.021c-2.025-5.517-4.135-11-6.339-16.444c-1.209-2.988-2.44-5.967-3.669-8.948
	c-1.2,0.625-2.386,1.274-3.539,1.974c3.414,7.693,6.828,15.384,10.242,23.08c0.227,0.515,0.348,1.169,0.732,1.522
	c0.193,0.175,0.414,0.319,0.642,0.457c0.648-0.599,1.303-0.973,1.966-1.118C146.384,92.354,146.379,92.178,146.322,92.021z"/>
<path fill="#EB5E51" d="M152.212,162.853c-1.436-0.333-2.902-0.566-4.367-0.745c-2.004-0.246-3.368-1.394-4.466-2.971
	c-0.422,0.458-0.82,1.25-1.238,1.26c-0.596,0.015-1.367-0.403-1.78-0.88c-1.152-1.331-2.322-1.934-4.205-1.489
	c-0.877,0.208-2.033-0.588-3.014-1.037c-2.042-0.933-4.075-1.889-6.062-2.931c-0.884-0.463-1.648-1.154-2.467-1.741
	c-0.306-0.22-0.585-0.559-0.926-0.638c-3.768-0.876-7.56-1.654-11.307-2.616c-0.638-0.164-1.549-1.077-1.531-1.62
	c0.037-1.215,0.822-2.145,2.27-2.085c2.506,0.103,5.012,0.216,7.519,0.313c0.392,0.015,0.847,0.096,1.171-0.062
	c3.782-1.853,4.696-1.498,5.911,2.369c0.059,0.19,0.152,0.37,0.243,0.588c0.169-0.139,0.328-0.207,0.33-0.279
	c0.107-3.147,2.068-4.739,4.698-5.977c1.442-0.679,2.64-1.862,3.988-2.756c0.601-0.398,1.301-0.644,2.371-1.159
	c-0.326,1.394-0.549,2.349-0.892,3.815c0.668-0.613,0.97-0.891,1.273-1.166c1.375-1.25,2.661-2.627,4.167-3.691
	c0.603-0.426,1.692-0.163,2.712-0.223c0.86-0.655,1.857-1.869,3.113-2.277c-1.351-3.501-2.698-7.003-3.975-10.526
	c-0.222-0.616-0.483-1.19-0.762-1.743c-1.197,0.295-2.435,0.761-3.437,1.463c-2.937,2.057-2.891,2.114-5.38-0.341
	c-0.349-0.344-0.75-0.635-1.128-0.951c-0.127,0.085-0.255,0.169-0.384,0.255c0.53,1.046,1.047,2.1,1.59,3.139
	c0.483,0.924,0.879,1.79-0.315,2.529c-1.167,0.723-2.247,0.91-3.239-0.252c-0.71-0.831-1.406-1.673-2.108-2.509
	c-0.141,0.1-0.28,0.199-0.42,0.299c0.358,0.883,0.763,1.75,1.067,2.651c0.941,2.779,0.06,3.943-2.779,3.72
	c-1.005,2.208-0.986,2.169-3.339,0.951c-0.82-0.425-1.765-0.61-2.652-0.906c0.173,0.973,0.336,1.947,0.529,2.915
	c0.055,0.275,0.197,0.534,0.383,1.021c-2.319,0.926-4.199,3.328-6.64,1.71c-1.655,0.856-3.067,1.438-4.312,2.273
	c-1.242,0.831-2.294,1.941-3.47,2.877c-1.063,0.847-1.955,0.492-2.259-0.838c-0.464-2.038,0.683-4.863,2.37-6.068
	c1.872-1.338,3.137-3.253,3.372-5.45c0.179-1.676,0.937-2.658,2.106-3.528c0.832-0.619,1.841-1.02,2.603-1.705
	c0.534-0.48,0.843-1.249,1.148-1.935c0.573-1.289,0.733-2.985,1.675-3.839c1.733-1.571,2.859-3.47,3.65-5.502
	c0.69-1.775,1.625-1.273,2.666-0.795c1.022,0.47,1.967,1.107,2.945,1.671c0.15-0.153,0.302-0.305,0.452-0.458
	c-0.616-0.7-1.127-1.551-1.87-2.071c-1.553-1.088-1.544-2.255-0.536-3.651c1.077-1.492,2.07-3.052,3.232-4.47
	c-3.312-8.833-6.621-17.666-9.921-26.502c-10.952,11.185-17.712,26.491-17.712,43.381c0,34.117,27.548,61.79,61.612,62.012
	c-1.536-6.534-3.126-13.052-4.866-19.527c-1.375-0.065-2.748-0.153-4.117-0.267C154.388,163.793,153.332,163.113,152.212,162.853z"
	/>
<path fill="#EB5E51" d="M137.915,95.437c0.433,0.62,1.374,0.887,2.085,1.316c0.187-0.82,0.741-1.774,0.495-2.436
	c-1.996-5.424-4.093-10.81-6.254-16.171c-1.119-2.776-2.256-5.543-3.392-8.311c-1.104,0.726-2.187,1.48-3.24,2.273
	c2.853,6.589,5.703,13.18,8.558,19.769C136.696,93.088,137.165,94.364,137.915,95.437z"/>
<path fill="#EB5E51" d="M131.791,96.829c0.685,0.579,1.425,1.1,2.143,1.642c0.127-0.833,0.522-1.746,0.314-2.482
	c-0.44-1.536-1.236-2.968-1.826-4.466c-2.316-5.913-4.619-11.834-6.93-17.75c-0.895,0.737-1.764,1.504-2.616,2.29
	c2.865,6.661,5.727,13.324,8.586,19.985C131.581,96.307,131.601,96.664,131.791,96.829z"/>
<path fill="#EB5E51" d="M151.23,93.732c0.102-0.316,0.661-0.785,0.874-0.72c1.48,0.454,2.922,1.031,4.473,1.604
	c0.24-0.823,0.407-1.684,0.599-2.52c-1.425-3.941-2.829-7.89-4.194-11.852c-2.065-5.998-3.405-12.198-4.095-18.503
	c-3.634,0.969-7.137,2.257-10.476,3.837c3.152,6.878,6.292,13.764,9.387,20.668c1.195,2.673,2.313,5.384,3.422,8.1
	C151.185,94.13,151.17,93.919,151.23,93.732z"/>
<path fill="#EB5E51" d="M177.946,156.325c0.737,2.846,0.522,4.944-2.376,5.655c-2.405,0.59-2.431-1.776-3.651-3.004
	c-0.083,0.906,0.003,1.729-0.266,2.411c-0.287,0.73-0.811,1.722-1.416,1.877c-0.634,0.162-1.663-0.361-2.2-0.902
	c-0.664-0.668-0.996-1.664-1.476-2.516c-0.32-0.568-0.647-1.131-1.306-1.546c0.372,1.131,0.768,2.256,1.108,3.396
	c0.185,0.624,0.248,1.122,0.181,1.513c2.448,5.395,5.059,10.719,7.876,15.954c0.624,1.159,1.271,2.306,1.904,3.46
	c5.47-1.02,10.692-2.741,15.556-5.095c-0.285-1.375-0.622-2.732-1.089-4.041c-1.931-5.406-3.949-10.782-5.982-16.15
	C182.426,159.617,180.219,159.366,177.946,156.325z"/>
<path fill="#EB5E51" d="M167.503,119.601c-0.381-0.266-0.745-0.542-0.946-0.908c-1.032-1.868-1.886-3.834-2.826-5.754
	c-0.273-0.558-0.605-1.089-0.91-1.631c-0.15,0.033-0.3,0.065-0.45,0.097c0.101,0.658,0.105,1.349,0.319,1.969
	c0.754,2.184,1.622,4.327,2.365,6.514c0.736,2.168-0.005,2.878-2.236,2.535c-1.56-0.241-3.174-0.241-4.759-0.195
	c-1.967,0.058-3.061-1.173-4.053-2.547c-0.634-0.88-1.113-1.873-1.948-2.761c0.147,0.721,0.364,1.437,0.423,2.166
	c0.053,0.659-0.067,1.332-0.11,1.998c-0.537-0.091-1.074-0.174-1.607-0.275c0.228,1.648,0.663,3.31,1.231,4.977
	c0.899,2.638,1.816,5.27,2.751,7.893c0.888-0.161,1.778-0.315,2.664-0.474c1.257-0.227,1.993,0.351,1.947,1.733
	c-0.04,1.214-0.085,2.432-0.02,3.644c0.033,0.602,0.307,1.193,0.471,1.789c0.236-0.024,0.473-0.049,0.709-0.073
	c0-0.992-0.167-2.02,0.041-2.966c0.289-1.311,0.599-2.756,1.371-3.792c1.248-1.675,2.629-1.474,3.763,0.119
	c0.783-0.915,1.536-1.894,2.392-2.772c1.141-1.17,2.208-0.819,2.987,0.431c0.942,1.518,1.768,3.106,2.656,4.657
	c0.299,0.522,0.634,1.022,1.242,1.391c0.001-0.052-0.005-0.102-0.005-0.153c-2.419-4.276-4.112-8.928-5.882-13.504
	C168.553,122.34,168.03,120.969,167.503,119.601z"/>
<path fill="#E84542" d="M220.247,93.685c0.126,0.249,0.258,0.494,0.381,0.744C220.558,94.154,220.427,93.907,220.247,93.685z"/>
<path fill="#E84542" d="M146.357,92.543c-0.663,0.146-1.318,0.519-1.966,1.118c0.434,0.259,0.906,0.477,1.344,0.729
	C145.895,93.789,146.274,93.111,146.357,92.543z"/>
<g>
	<path fill="#E14941" d="M195.699,151.46c0.644-1.143,1.238-2.315,1.851-3.465c2.151,1.07,2.701,0.9,3.234-1.056
		c0.224-0.822,0.235-1.709,0.284-2.571c0.044-0.779,0.009-1.563,0.009-2.593c0.524,0.581,0.871,0.966,1.451,1.608
		c0.897-2.155,1.662-4.071,2.492-5.959c0.906-2.062,0.768-4.095,0.048-6.199c0.654,0.75,1.309,1.497,2.162,2.473
		c1.013-2.25,1.983-4.155,2.737-6.141c1.056-2.776,3.105-5.184,3.068-8.385c-0.005-0.456,0.619-0.919,0.955-1.377
		c1.621-2.216,3.688-4.281,2.481-7.33c0.663-0.249,1.541-0.304,1.728-0.693c1.27-2.628,2.45-5.304,3.503-8.025
		c0.181-0.468-0.236-1.601-0.636-1.755c-0.556-0.213-1.504,0.01-2.021,0.396c-1.148,0.86-2.202,1.875-3.173,2.939
		c-2.112,2.312-2.086,2.324-5.204,3.222c-0.658,0.189-1.393,0.409-1.876,0.851c-1.124,1.028-2.338,1.485-3.876,1.512
		c-0.7,0.013-1.383,0.721-2.086,1.092c-0.775,0.409-1.528,1.01-2.354,1.147c-2.857,0.479-3.215,0.725-3.793,3.539
		c-0.605-0.165-1.201-0.349-1.809-0.487c-1.188-0.272-4.354,1.07-4.874,2.148c-0.741,1.538,0.795,2.072,1.433,3
		c0.08,0.115,0.096,0.272,0.169,0.498c-2.467-1.371-2.467-1.371-3.521,0.328c-0.244-0.039-0.519-0.104-0.797-0.122
		c-0.334-0.023-0.671-0.005-0.994-0.005c-0.348,1.12-0.496,1.587-0.97,2.009c0.677,1.813,1.361,3.625,2.027,5.442
		c1.297,3.538,1.431,7.487,2.543,11.111c1.44,4.693,2.95,9.396,4.811,13.935C195.031,152.426,195.356,152.071,195.699,151.46z"/>
	<path fill="#E14941" d="M149.723,134.853c-1.256,0.409-2.253,1.623-3.113,2.277c-1.02,0.06-2.109-0.203-2.712,0.223
		c-1.507,1.064-2.793,2.441-4.167,3.691c-0.303,0.275-0.604,0.553-1.273,1.166c0.343-1.466,0.566-2.421,0.892-3.815
		c-1.07,0.516-1.771,0.761-2.371,1.159c-1.348,0.894-2.546,2.077-3.988,2.756c-2.629,1.238-4.59,2.829-4.698,5.977
		c-0.002,0.073-0.161,0.141-0.33,0.279c-0.091-0.218-0.184-0.397-0.243-0.588c-1.215-3.866-2.129-4.222-5.911-2.369
		c-0.324,0.158-0.779,0.077-1.171,0.062c-2.507-0.097-5.013-0.21-7.519-0.313c-1.447-0.06-2.232,0.871-2.27,2.085
		c-0.018,0.543,0.893,1.457,1.531,1.62c3.747,0.962,7.539,1.74,11.307,2.616c0.341,0.079,0.62,0.418,0.926,0.638
		c0.819,0.587,1.583,1.278,2.467,1.741c1.987,1.042,4.021,1.998,6.062,2.931c0.98,0.449,2.137,1.245,3.014,1.037
		c1.883-0.444,3.052,0.158,4.205,1.489c0.414,0.477,1.185,0.895,1.78,0.88c0.417-0.01,0.816-0.802,1.238-1.26
		c1.098,1.578,2.462,2.725,4.466,2.971c1.465,0.179,2.931,0.413,4.367,0.745c1.12,0.26,2.176,0.94,3.294,1.033
		c1.37,0.113,2.743,0.201,4.117,0.267c-0.479-1.786-0.965-3.57-1.47-5.348C155.846,150.677,152.776,142.768,149.723,134.853z"/>
	<path fill="#E14941" d="M179.354,143.417c-1.729-1.928-3.151-4.019-4.389-6.206c0,0.051,0.006,0.101,0.005,0.153
		c-0.608-0.369-0.943-0.868-1.242-1.391c-0.889-1.55-1.714-3.139-2.656-4.657c-0.778-1.25-1.846-1.602-2.987-0.431
		c-0.856,0.878-1.609,1.857-2.392,2.772c-1.134-1.593-2.515-1.794-3.763-0.119c-0.772,1.036-1.082,2.48-1.371,3.792
		c-0.208,0.946-0.041,1.974-0.041,2.966c-0.236,0.024-0.473,0.049-0.709,0.073c-0.164-0.596-0.438-1.187-0.471-1.789
		c-0.065-1.212-0.02-2.43,0.02-3.644c0.046-1.383-0.69-1.96-1.947-1.733c-0.886,0.159-1.775,0.313-2.664,0.474
		c3.562,9.998,7.417,19.878,11.797,29.531c0.066-0.391,0.003-0.889-0.181-1.513c-0.34-1.141-0.736-2.265-1.108-3.396
		c0.659,0.415,0.986,0.978,1.306,1.546c0.48,0.852,0.812,1.848,1.476,2.516c0.537,0.541,1.566,1.064,2.2,0.902
		c0.605-0.155,1.129-1.147,1.416-1.877c0.269-0.682,0.183-1.505,0.266-2.411c1.221,1.229,1.246,3.595,3.651,3.004
		c2.898-0.711,3.113-2.809,2.376-5.655c2.272,3.042,4.479,3.292,6.863,1.012c-1.512-3.986-3.03-7.968-4.535-11.955
		C180.019,144.704,179.814,143.934,179.354,143.417z"/>
	<path fill="#E14941" d="M172.587,88.767c1.852,4.833,3.719,9.66,5.581,14.489c0.119-0.027,0.239-0.055,0.357-0.083
		c0.832,2.032,1.664,4.064,2.551,6.228c1.095-0.722,2.04-1.28,2.912-1.935c1.56-1.171,2.507-2.562,2.198-4.728
		c-0.153-1.08,0.395-2.26,0.625-3.394c0.205,0.02,0.411,0.039,0.616,0.058c0,1.353-0.08,2.712,0.02,4.057
		c0.139,1.887,0.808,2.398,2.686,2.339c2.413-0.076,4.302-1.064,5.545-3.55c0.578,1.757,1.461,1.822,2.677,1.263
		c0.599-0.276,1.35-0.306,2.031-0.299c1.93,0.022,3.143-0.892,3.843-2.65c0.39-0.973,0.889-1.903,1.339-2.853
		c0.302,0.394,0.338,0.676,0.295,0.947c-0.252,1.594,0.046,1.804,1.625,1.29c3.002-0.975,5.63-2.99,9.186-2.471
		c1.267,0.185,3.8-1.223,3.982-2.226c0.054-0.299,0.036-0.57-0.027-0.821c-0.123-0.25-0.255-0.496-0.381-0.744
		c-0.673-0.835-1.991-1.327-3.068-1.619c-2.546-0.688-5.189-1.015-7.789-1.511c-0.668-0.127-1.358-0.233-1.98-0.49
		c-1.299-0.536-2.734-1.868-3.797-1.604c-2,0.498-3.228-0.702-4.814-1.047c-3.581-0.779-7.271-1.094-10.932-1.462
		c-1.698-0.172-3.428-0.03-5.395-0.03c-1.168-1.885-3.344-1.224-5.149-0.908c-2.488,0.436-1.393,3.262-2.594,5.113
		c-0.074-0.793-0.05-1.192-0.157-1.554c-0.381-1.287,1.195-3.321-0.995-3.804c-0.67-0.148-1.39-0.094-2.121,0.027
		c0.491,1.279,0.982,2.559,1.473,3.838C172.815,88.678,172.7,88.722,172.587,88.767z"/>
	<path fill="#E14941" d="M127.813,112.91c0.743,0.52,1.254,1.371,1.87,2.071c-0.15,0.153-0.301,0.305-0.452,0.458
		c-0.979-0.564-1.923-1.202-2.945-1.671c-1.041-0.478-1.976-0.98-2.666,0.795c-0.791,2.033-1.917,3.931-3.65,5.502
		c-0.942,0.854-1.102,2.55-1.675,3.839c-0.305,0.687-0.614,1.455-1.148,1.935c-0.762,0.686-1.771,1.086-2.603,1.705
		c-1.169,0.871-1.928,1.852-2.106,3.528c-0.235,2.196-1.5,4.112-3.372,5.45c-1.688,1.205-2.834,4.03-2.37,6.068
		c0.304,1.33,1.196,1.685,2.259,0.838c1.176-0.936,2.229-2.046,3.47-2.877c1.244-0.835,2.657-1.417,4.312-2.273
		c2.441,1.617,4.321-0.784,6.64-1.71c-0.187-0.486-0.329-0.745-0.383-1.021c-0.193-0.968-0.356-1.942-0.529-2.915
		c0.887,0.295,1.832,0.481,2.652,0.906c2.354,1.218,2.334,1.256,3.339-0.951c2.838,0.223,3.72-0.94,2.779-3.72
		c-0.305-0.901-0.709-1.768-1.067-2.651c0.14-0.1,0.28-0.2,0.42-0.299c0.702,0.836,1.398,1.678,2.108,2.509
		c0.992,1.162,2.072,0.976,3.239,0.252c1.194-0.739,0.798-1.605,0.315-2.529c-0.543-1.039-1.061-2.092-1.59-3.139
		c0.128-0.085,0.256-0.17,0.384-0.255c0.378,0.315,0.779,0.606,1.128,0.951c2.489,2.455,2.443,2.397,5.38,0.341
		c1.001-0.702,2.239-1.168,3.437-1.463c-1.361-2.706-3.42-4.656-6.578-5.54c-2.582-0.719-4.228-2.447-5.142-4.893
		c-0.922-2.454-1.836-4.909-2.756-7.362c-1.163,1.417-2.155,2.978-3.232,4.47C126.27,110.655,126.261,111.821,127.813,112.91z"/>
	<path fill="#E14941" d="M153.608,109.583c-2.769,3.608-3.375,7.381-2.843,11.224c0.533,0.102,1.071,0.185,1.607,0.275
		c0.043-0.666,0.163-1.339,0.11-1.998c-0.059-0.729-0.275-1.445-0.423-2.166c0.835,0.889,1.314,1.881,1.948,2.761
		c0.992,1.374,2.085,2.604,4.053,2.547c1.585-0.046,3.199-0.046,4.759,0.195c2.231,0.344,2.973-0.366,2.236-2.535
		c-0.743-2.188-1.611-4.331-2.365-6.514c-0.214-0.62-0.218-1.311-0.319-1.969c0.15-0.032,0.299-0.064,0.45-0.097
		c0.305,0.542,0.636,1.073,0.91,1.631c0.94,1.919,1.794,3.886,2.826,5.754c0.201,0.365,0.564,0.642,0.946,0.908
		c-3.521-9.138-6.997-18.295-10.328-27.503c-0.191,0.836-0.358,1.697-0.599,2.52c-1.551-0.574-2.993-1.15-4.473-1.604
		c-0.213-0.065-0.772,0.404-0.874,0.72c-0.06,0.187-0.045,0.397-0.01,0.615c0.967,2.371,1.928,4.746,2.927,7.103
		C155.34,104.277,155.452,107.188,153.608,109.583z"/>
</g>
</svg>
