<?xml version="1.0" encoding="utf-8"?>
<!-- Generator: Adobe Illustrator 16.0.0, SVG Export Plug-In . SVG Version: 6.00 Build 0)  -->
<!DOCTYPE svg PUBLIC "-//W3C//DTD SVG 1.1//EN" "http://www.w3.org/Graphics/SVG/1.1/DTD/svg11.dtd">
<svg version="1.1" id="Calque_1" xmlns="http://www.w3.org/2000/svg" xmlns:xlink="http://www.w3.org/1999/xlink" x="0px" y="0px"
	 width="125px" height="50px" viewBox="0 0 125 50" enable-background="new 0 0 125 50" xml:space="preserve">
<g>
	<g>
		<g>
			<g>
				<g>
					<path fill="#FFFFFF" d="M88.511,25.195c0.12,0.699,0.287-0.211,0.376-1.028l-0.488-0.696L88.511,25.195z"/>
					<path fill="#FFFFFF" d="M88.285,21.311c0,0-0.171-0.471-0.397-0.917c-0.233-0.441-0.468-0.882-0.468-0.882
						c0.001,0,0.588,1.294,0.548,1.305c-0.025,1.581-0.467-0.128-0.744-0.643C87.819,22.592,87.942,20.969,88.285,21.311z"/>
					<path fill="#FFFFFF" d="M86.978,17.695c-0.396-1.179-0.562-0.736-0.474-0.223C86.653,17.501,87.064,18.214,86.978,17.695z"/>
					<path fill="#FFFFFF" d="M45.351,38.393c-0.138-0.349-0.324-0.741-0.22-0.732C44.844,37.356,44.733,37.316,45.351,38.393z"/>
					<path fill="#FFFFFF" d="M45.131,37.66c0.054,0.061,0.114,0.123,0.18,0.197c-0.049-0.065-0.086-0.117-0.146-0.197
						C45.142,37.643,45.142,37.66,45.131,37.66z"/>
					<path fill="#FFFFFF" d="M48.312,14.65c0.213-0.598,0.463-1.019,0.764-1.394c0.28-0.384,0.55-0.75,0.911-1.243l0.726-0.233
						c0.768-1.008,0.111-0.662,0.664-1.43c0.992-0.651,2.81-2.327,3.346-2.542c0.421-0.05-0.28,0.453-0.379,0.636
						c1.21-0.854,0.897-1.203,2.612-2.003l0.07,0.08c1.93-1.174,4.443-1.987,7.099-2.23c2.658-0.261,5.417,0.031,7.928,0.663
						c-0.323-0.144-0.223-0.176-0.33-0.288c2.66,0.721,5.354,2.09,7.629,3.82c2.292,1.716,4.173,3.737,5.67,5.506
						c-0.805-1.335-1.942-3.113-3.386-4.68c-1.482-1.509-3.191-2.861-4.759-3.323c-0.418-0.443-1.105-0.75-1.709-1.01
						c-0.599-0.28-1.118-0.516-1.286-0.759c-0.526-0.215-1.019-0.404-1.486-0.573c-0.473-0.151-0.933-0.231-1.361-0.33
						c-0.859-0.214-1.661-0.245-2.448-0.286c-1.57-0.082-3.107,0.055-5.238,0.204c-0.616,0.009-0.341-0.209-0.54-0.363
						c-0.017-0.078,3.452-0.41,3.458-0.324c0,0-0.134-0.016-0.332-0.04c-0.198-0.026-0.464-0.062-0.732-0.057
						c-0.535-0.01-1.07-0.022-1.07-0.022c0.921-0.291,3.18-0.032,3.471-0.353c-1.567,0.097-3.577,0.068-5.507,0.435
						c-1.938,0.274-3.753,0.935-4.902,1.629c1.187-0.386,2.65-0.924,4.108-1.178c0.665,0.02,1.661-0.042,1.616,0.151
						c-3.984,1.083-7.308,2.067-10.584,4.74c-0.852,0.614-1.846,1.631-2.124,1.593c0.471-0.512-0.02-0.267,0.346-0.716
						c-0.991,1.145,0.278,0.521-1.212,2.046l-0.278-0.626c-0.042,0.551-0.535,0.988-1.01,1.568
						c-0.502,0.556-1.098,1.173-1.308,1.954c-0.478,0.365-0.151-0.648,0.581-1.618c-0.92,1.036-0.594,1.397-1.189,2.294l0.079-1.161
						c-0.202,1.246-1.121,1.778-1.569,2.332c0.091,0.127,0.707-0.263,0.072,1.055c-0.279,0.566-0.295,0.214-0.417,0.326
						c0.094,0.126,0.137,0.708-0.179,1.614c-0.232,0.115-0.035-0.684-0.185-0.807C43.667,18.398,43.583,19,43.3,19.482
						c-0.182,1.305,0.271-0.018,0.262,0.796c-0.501,1.924-0.66,0.068-1.162,0.731c0.001-1.586,0.539-3.563,0.737-4.397
						c0,0-0.228,0.729-0.453,1.455c-0.155,0.745-0.311,1.489-0.311,1.489c-0.179-0.242-0.83,1.944-0.663,0.313
						c-0.903,2.992-0.72,6.842,0.023,9.686c0.007-0.425-0.029-0.959,0.116-0.894c0.349,1.466,0.063,1.349-0.006,1.685
						c0.421,1.06,0.741,0.846,1.167,1.422c0.41,2.246,0.702,2.472,1.165,4.415l0.27-0.274c0.358,1.372,0.993,1.237,1.577,2.602
						c-0.028,0.117-0.409-0.307-0.714-0.656c0.768,1.068,0.438,1.177,1.306,2.15l-0.944-0.589c0.319,0.417,0.734,0.912,0.995,1.277
						c0.288,0.339,0.418,0.562,0.103,0.472c1.464,1.167,3.757,3.417,5.831,4.416l-0.297,0.185c1.165,0.343,3.799,2.154,4.967,1.977
						l0.119,0.181c0,0,0.579,0.114,1.161,0.184c0.586,0.04,1.17,0.083,1.17,0.083c0.995,0.292,0.556,0.668,0.665,0.561
						c2.285,0.381,4.081,0.452,5.57,0.595c0.184-0.221,0.874-0.389,1.746-0.52c0.865-0.181,1.921-0.38,2.84-0.59
						c2.244-0.417,4.445-1.256,6.501-2.372c2.047-1.14,3.873-2.662,5.453-4.355c3.149-3.433,4.991-7.773,5.557-11.859
						c0.086-0.613,0.077-1.361,0.049-2.129c-0.104-0.778-0.233-1.577-0.297-2.324c-0.207,1.824,0.064,2.016-0.238,3.808
						c-0.312,1.328-0.946,1.691-1.471,2.704c0.019,0.007,0.494-0.454,0.494-0.454c-0.261,1.813-0.575,1.104-0.716,2.581
						l-0.504-0.277c0.051,0.559-0.697,1.595-1.064,1.963l0.105,0.588c-0.76,0.861-1.233,1.414-1.743,1.46l0.359,0.124
						c-0.242,0.083-0.799,1.002-1.433,1.576c-0.604,0.603-1.081,1.003-0.872,0.31c-0.147,0.29-0.203,0.646-0.76,1.071l-0.323-0.194
						c-0.642,0.765-1.5,1.475-1.854,1.478c0.377-0.391,0.421-0.621,0.46-0.848c-1.633,1.217-1.7,1.515-1.672,1.871
						c0.012,0.172,0.037,0.339-0.144,0.591c-0.183,0.245-0.555,0.615-1.428,1.014l-0.063-0.229l-0.765,0.645
						c0.008,0.031-1.053,0.097-1.053,0.099c-0.252,0.299-0.693,0.58-1.257,0.805c-0.577,0.186-1.266,0.339-1.979,0.493
						c-0.729,0.08-1.487,0.165-2.199,0.245c-0.72,0.024-1.396,0.084-1.976,0.219c-0.92,0.024-2.098-0.41-3.771-0.67l0.052,0.374
						c-0.331-0.142-0.896-0.298-1.547-0.58c-0.656-0.252-1.415-0.529-2.12-0.936c-0.356-0.19-0.713-0.365-1.041-0.57
						c-0.319-0.222-0.619-0.44-0.885-0.648c-0.545-0.399-0.928-0.823-1.076-1.172c-1.198-0.401,0.07,0.132-0.094,0.366
						c-0.568-0.237-0.994-0.449-1.315-0.654c-0.303-0.233-0.512-0.442-0.679-0.643c-0.323-0.412-0.524-0.738-0.902-1.26
						c-1.214-0.864,0.747,0.87-0.017,0.54c-1.491-1.754-1.758-0.899-3.392-3.298c-0.003-0.354,0.545,0.514,0.842,0.648
						c-0.387-0.328-0.782-0.796-1.221-1.317c-0.431-0.529-0.789-1.194-1.211-1.854c-0.34-0.704-0.713-1.43-1.008-2.176
						c-0.246-0.764-0.598-1.486-0.761-2.219c-0.393-1.671-0.539-3.796-0.444-5.956c0.091-2.17,0.691-4.344,1.449-6.123l-0.099-0.11
						c0.794-1.421,1.351-3.087,2.484-4.61L48.312,14.65z"/>
					<path fill="#FFFFFF" d="M68.645,1.796l-0.325-0.36C68.321,1.371,66.2,1.503,66.2,1.503C67.037,1.827,67.493,1.534,68.645,1.796
						z"/>
					<path fill="#FFFFFF" d="M68.095,2.664l1.063,0.016c0,0-1.694-0.245-1.7-0.194C67.458,2.485,68.098,2.646,68.095,2.664z"/>
					<path fill="#FFFFFF" d="M45.924,12.873l0.179-0.2C46,12.615,48.226,9.368,48.298,9.414
						C48.219,9.362,45.801,12.801,45.924,12.873z"/>
					<path fill="#FFFFFF" d="M45.009,38.435c-0.384-0.315-0.679-0.935-1.031-1.303l1.134,1.567L45.009,38.435z"/>
					<path fill="#FFFFFF" d="M59.534,50.148c0.863-0.342,1.472,0.348,0.6-0.363C58.96,49.583,59.909,50.053,59.534,50.148z"/>
					<path fill="#FFFFFF" d="M64.072,49.995c-0.672-0.06-1.054,0.03-1.431,0.042C63.507,50.394,63.571,50.064,64.072,49.995z"/>
				</g>
			</g>
		</g>
	</g>
</g>
<path fill="none" d="M71.318,26.795c0.446,0.413,0.891,0.824,1.338,1.235c0.059-0.065,0.119-0.13,0.18-0.195
	c-0.439-0.418-0.879-0.837-1.317-1.255C71.453,26.651,71.384,26.726,71.318,26.795z"/>
<path fill="none" d="M71.178,33.273c0.171,0.836,0.476,1.607,1.051,2.256c0.053-0.033,0.106-0.065,0.159-0.1
	c-0.344-0.745-0.688-1.492-1.029-2.237C71.297,33.219,71.238,33.246,71.178,33.273z"/>
<path fill="none" d="M60.992,24.919c-0.049-0.009-0.098-0.018-0.148-0.029c-0.104-0.023-0.201-0.085-0.376-0.162
	c-0.191,0.704-0.799,0.63-1.327,0.759l0,0c0.089,0.179,0.172,0.362,0.244,0.56c0.409,1.131,0.841,2.251,1.274,3.374
	c0.001,0,0.003,0,0.006,0c0.52-0.168,1.062-0.277,1.605-0.375c-0.299-0.842-0.593-1.686-0.883-2.531
	C61.205,25.98,61.064,25.447,60.992,24.919z"/>
<path fill="none" d="M69.85,20.119c0.24,1.487,0.144,1.677-1.284,2.407c-0.313-0.779-0.627-1.556-0.94-2.332
	c-0.044,0.017-0.091,0.031-0.134,0.046c0.211,0.643,0.426,1.283,0.632,1.927c0.073,0.227,0.163,0.459,0.18,0.693
	c0.01,0.155-0.076,0.443-0.156,0.458c-0.189,0.035-0.433-0.01-0.593-0.114c-0.169-0.112-0.27-0.329-0.464-0.59
	c0,0.567,0.053,1.03-0.022,1.471c-0.037,0.228-0.306,0.414-0.469,0.621c-0.074-0.062-0.156-0.117-0.24-0.175
	c0.169,0.438,0.337,0.878,0.509,1.316c0.566,1.466,1.11,2.958,1.886,4.329c-0.014-0.892-0.727-1.479-1.003-2.253
	c0.864-0.719,1.116-0.672,2.226,0.359c-0.127-0.222-0.253-0.443-0.381-0.663c-0.422-0.73-0.046-1.425,0.819-1.398
	c0.429,0.015,0.752,0.008,0.93-0.437c0.021-0.058,0.114-0.09,0.178-0.125c0.277-0.152,0.44-0.242,0.55-0.338
	c-0.75-2.016-1.519-4.022-2.292-6.027c-0.014,0.003-0.027,0.006-0.038,0.007C69.772,19.576,69.804,19.848,69.85,20.119z"/>
<path fill="#EB5E51" d="M68.306,13.366c0.702,0.154,0.197,0.807,0.318,1.22c0.035,0.116,0.029,0.245,0.051,0.499
	c0.385-0.594,0.032-1.5,0.831-1.64c0.578-0.101,1.274-0.313,1.649,0.29c0.631,0,1.185-0.045,1.73,0.011
	c1.174,0.119,2.354,0.218,3.505,0.469c0.507,0.111,0.9,0.494,1.543,0.335c0.338-0.085,0.799,0.341,1.217,0.515
	c0.199,0.083,0.421,0.116,0.636,0.157c0.833,0.158,1.681,0.264,2.496,0.484c0.344,0.094,0.768,0.252,0.983,0.519
	c-3.277-6.472-9.986-10.91-17.741-10.91c-0.331,0-0.656,0.008-0.983,0.024c1.03,2.68,2.057,5.359,3.083,8.039
	C67.857,13.337,68.092,13.32,68.306,13.366z"/>
<path fill="#EB5E51" d="M83.386,16.464c0.021,0.08,0.027,0.167,0.011,0.263c-0.06,0.321-0.871,0.773-1.277,0.713
	c-1.14-0.166-1.983,0.479-2.944,0.793c-0.508,0.166-0.601,0.097-0.52-0.414c0.012-0.088,0-0.179-0.096-0.305
	c-0.145,0.305-0.302,0.604-0.428,0.916c-0.225,0.563-0.614,0.856-1.234,0.85c-0.216-0.001-0.458,0.007-0.649,0.095
	c-0.39,0.18-0.672,0.158-0.857-0.404c-0.396,0.796-1.004,1.113-1.778,1.137c-0.601,0.019-0.817-0.146-0.859-0.75
	c-0.032-0.431-0.006-0.867-0.006-1.3c-0.066-0.006-0.135-0.013-0.201-0.02c-0.072,0.364-0.249,0.741-0.198,1.088
	c0.097,0.695-0.206,1.14-0.703,1.516c-0.28,0.209-0.584,0.39-0.937,0.62c-0.283-0.694-0.549-1.344-0.816-1.996
	c-0.036,0.008-0.079,0.017-0.115,0.028c0.771,2.004,1.542,4.013,2.292,6.027c0.151-0.135,0.2-0.286,0.309-0.645
	c0.106,0,0.215-0.004,0.321,0.001c0.092,0.006,0.178,0.026,0.256,0.04c0.337-0.545,0.337-0.545,1.13-0.105
	c-0.023-0.072-0.029-0.122-0.055-0.159c-0.203-0.299-0.695-0.469-0.458-0.961c0.166-0.346,1.183-0.775,1.562-0.69
	c0.194,0.046,0.387,0.104,0.58,0.157c0.183-0.903,0.299-0.981,1.214-1.135c0.266-0.044,0.506-0.236,0.755-0.367
	c0.226-0.12,0.447-0.347,0.67-0.35c0.493-0.011,0.884-0.155,1.244-0.485c0.153-0.143,0.39-0.213,0.6-0.274
	c0.999-0.287,0.992-0.292,1.669-1.032c0.31-0.341,0.647-0.667,1.017-0.944c0.166-0.124,0.47-0.195,0.646-0.127
	c0.129,0.05,0.264,0.414,0.204,0.563c-0.335,0.872-0.716,1.729-1.123,2.572c-0.059,0.125-0.34,0.142-0.554,0.221
	c0.388,0.978-0.276,1.64-0.796,2.351c-0.104,0.146-0.308,0.295-0.305,0.441c0.01,1.026-0.645,1.796-0.983,2.686
	c-0.243,0.638-0.554,1.248-0.877,1.97c-0.276-0.312-0.484-0.552-0.696-0.794c0.23,0.675,0.276,1.326-0.014,1.988
	c-0.267,0.605-0.513,1.219-0.801,1.91c-0.185-0.206-0.296-0.33-0.462-0.517c0,0.329,0.009,0.582-0.005,0.831
	c-0.017,0.275-0.02,0.562-0.091,0.824c-0.171,0.625-0.347,0.68-1.037,0.338c-0.195,0.368-0.388,0.744-0.592,1.111
	c-0.11,0.195-0.214,0.31-0.321,0.349c0.088,0.214,0.177,0.426,0.271,0.637c0.759,1.728,1.483,3.499,2.381,5.154
	c4.67-3.639,7.679-9.312,7.679-15.688C85.405,22.061,84.677,19.099,83.386,16.464z"/>
<path fill="#EB5E51" d="M59.568,15.691c-0.65-1.769-1.326-3.527-2.032-5.271c-0.388-0.958-0.782-1.914-1.176-2.87
	c-0.386,0.201-0.765,0.409-1.134,0.633c1.094,2.465,2.189,4.93,3.284,7.397c0.072,0.165,0.111,0.375,0.235,0.488
	c0.062,0.056,0.133,0.103,0.205,0.147c0.209-0.191,0.418-0.312,0.631-0.358C59.588,15.798,59.585,15.741,59.568,15.691z"/>
<path fill="#EB5E51" d="M61.456,38.396c-0.459-0.107-0.93-0.18-1.399-0.24c-0.643-0.077-1.08-0.446-1.433-0.95
	c-0.135,0.146-0.263,0.4-0.397,0.403c-0.19,0.003-0.437-0.132-0.57-0.282c-0.37-0.428-0.745-0.619-1.347-0.478
	c-0.283,0.067-0.652-0.188-0.967-0.331c-0.655-0.299-1.306-0.606-1.943-0.94c-0.283-0.148-0.528-0.37-0.792-0.558
	c-0.098-0.072-0.188-0.18-0.296-0.206c-1.207-0.281-2.422-0.53-3.625-0.839c-0.205-0.051-0.495-0.345-0.489-0.52
	c0.012-0.39,0.264-0.688,0.727-0.67c0.805,0.032,1.608,0.07,2.411,0.103c0.126,0.002,0.271,0.03,0.375-0.021
	c1.212-0.595,1.506-0.48,1.895,0.76c0.02,0.062,0.049,0.119,0.078,0.188c0.054-0.046,0.105-0.067,0.105-0.091
	c0.034-1.008,0.663-1.52,1.505-1.916c0.463-0.218,0.846-0.596,1.278-0.884c0.193-0.127,0.417-0.206,0.761-0.37
	c-0.106,0.447-0.176,0.753-0.288,1.222c0.215-0.195,0.311-0.285,0.409-0.373c0.441-0.401,0.853-0.843,1.335-1.185
	c0.194-0.136,0.543-0.051,0.871-0.07c0.276-0.21,0.595-0.6,0.997-0.731c-0.432-1.123-0.863-2.244-1.273-3.374
	c-0.072-0.197-0.155-0.381-0.245-0.56c-0.384,0.095-0.78,0.245-1.102,0.471c-0.942,0.659-0.927,0.677-1.724-0.11
	c-0.112-0.111-0.242-0.204-0.362-0.305c-0.041,0.027-0.082,0.056-0.123,0.082c0.17,0.336,0.336,0.673,0.51,1.006
	c0.154,0.295,0.281,0.574-0.101,0.81c-0.375,0.232-0.72,0.292-1.038-0.08c-0.229-0.267-0.451-0.536-0.678-0.805
	c-0.045,0.032-0.088,0.062-0.134,0.095c0.116,0.284,0.245,0.561,0.343,0.851c0.302,0.891,0.02,1.263-0.891,1.191
	c-0.322,0.708-0.316,0.695-1.07,0.305c-0.263-0.136-0.565-0.194-0.85-0.289c0.057,0.312,0.108,0.624,0.17,0.935
	c0.018,0.089,0.063,0.172,0.124,0.327c-0.743,0.297-1.346,1.066-2.128,0.548c-0.531,0.274-0.983,0.462-1.382,0.729
	c-0.397,0.266-0.734,0.622-1.112,0.922c-0.342,0.271-0.626,0.157-0.725-0.268c-0.149-0.654,0.217-1.559,0.759-1.945
	c0.599-0.43,1.006-1.044,1.08-1.747c0.057-0.536,0.301-0.852,0.674-1.13c0.267-0.198,0.59-0.327,0.833-0.549
	c0.172-0.152,0.27-0.398,0.368-0.619c0.183-0.413,0.234-0.956,0.538-1.231c0.555-0.503,0.916-1.111,1.169-1.763
	c0.22-0.571,0.521-0.409,0.854-0.255c0.329,0.152,0.63,0.355,0.944,0.536c0.049-0.048,0.097-0.097,0.146-0.147
	c-0.196-0.224-0.362-0.497-0.599-0.664c-0.498-0.349-0.495-0.724-0.172-1.171c0.344-0.478,0.664-0.978,1.037-1.434
	c-1.063-2.83-2.123-5.662-3.179-8.495c-3.512,3.585-5.678,8.491-5.678,13.906c0,10.937,8.829,19.809,19.75,19.879
	c-0.494-2.097-1.004-4.186-1.56-6.261c-0.439-0.021-0.883-0.047-1.32-0.086C62.153,38.699,61.814,38.48,61.456,38.396z"/>
<path fill="#EB5E51" d="M56.873,16.786c0.139,0.2,0.441,0.285,0.667,0.422c0.06-0.264,0.238-0.568,0.159-0.781
	c-0.641-1.738-1.312-3.465-2.005-5.184c-0.359-0.89-0.725-1.776-1.088-2.665c-0.353,0.232-0.701,0.474-1.038,0.729
	c0.916,2.113,1.829,4.225,2.744,6.337C56.483,16.033,56.634,16.441,56.873,16.786z"/>
<path fill="#EB5E51" d="M54.91,17.233c0.218,0.185,0.458,0.352,0.687,0.524c0.041-0.267,0.168-0.558,0.101-0.794
	c-0.141-0.492-0.396-0.951-0.585-1.432c-0.741-1.895-1.482-3.793-2.221-5.689c-0.287,0.236-0.565,0.482-0.839,0.734
	c0.919,2.136,1.835,4.271,2.752,6.406C54.843,17.064,54.848,17.179,54.91,17.233z"/>
<path fill="#EB5E51" d="M61.141,16.239c0.033-0.101,0.213-0.25,0.281-0.23c0.474,0.146,0.937,0.33,1.434,0.515
	c0.078-0.264,0.131-0.54,0.192-0.808c-0.457-1.263-0.909-2.528-1.346-3.797c-0.662-1.923-1.092-3.91-1.313-5.932
	c-1.163,0.311-2.288,0.724-3.359,1.231c1.011,2.205,2.017,4.412,3.008,6.625c0.385,0.856,0.744,1.725,1.098,2.596
	C61.128,16.367,61.123,16.299,61.141,16.239z"/>
<path fill="#EB5E51" d="M69.706,36.303c0.235,0.914,0.166,1.586-0.764,1.814c-0.769,0.188-0.779-0.571-1.17-0.964
	c-0.027,0.289,0,0.553-0.086,0.773c-0.093,0.231-0.259,0.552-0.455,0.601c-0.203,0.052-0.531-0.114-0.702-0.289
	c-0.215-0.215-0.321-0.534-0.475-0.806c-0.102-0.184-0.208-0.363-0.417-0.497c0.118,0.364,0.245,0.725,0.354,1.091
	c0.059,0.2,0.078,0.358,0.058,0.484c0.785,1.729,1.621,3.438,2.523,5.112c0.2,0.374,0.407,0.74,0.612,1.111
	c1.752-0.328,3.427-0.881,4.985-1.635c-0.09-0.438-0.202-0.875-0.348-1.294c-0.62-1.733-1.269-3.456-1.92-5.179
	C71.141,37.359,70.434,37.278,69.706,36.303z"/>
<path fill="#EB5E51" d="M66.357,24.532c-0.122-0.085-0.238-0.173-0.301-0.291c-0.333-0.599-0.607-1.229-0.907-1.846
	c-0.088-0.179-0.195-0.349-0.292-0.522c-0.046,0.01-0.097,0.021-0.144,0.031c0.031,0.211,0.032,0.433,0.104,0.632
	c0.238,0.701,0.519,1.387,0.757,2.087c0.236,0.697-0.002,0.924-0.717,0.814c-0.499-0.078-1.017-0.078-1.525-0.063
	c-0.631,0.019-0.98-0.375-1.301-0.816c-0.201-0.283-0.355-0.602-0.624-0.885c0.048,0.231,0.117,0.461,0.135,0.695
	c0.018,0.21-0.02,0.428-0.033,0.641c-0.173-0.03-0.345-0.056-0.517-0.088c0.072,0.529,0.213,1.061,0.396,1.594
	c0.288,0.847,0.582,1.69,0.883,2.532c0.283-0.054,0.569-0.104,0.854-0.153c0.401-0.071,0.638,0.113,0.625,0.556
	c-0.014,0.389-0.029,0.78-0.008,1.167c0.011,0.193,0.099,0.383,0.15,0.574c0.077-0.007,0.153-0.017,0.229-0.023
	c0-0.317-0.054-0.647,0.014-0.951c0.093-0.421,0.191-0.884,0.438-1.217c0.4-0.536,0.842-0.472,1.206,0.038
	c0.252-0.294,0.492-0.606,0.767-0.888c0.365-0.375,0.709-0.263,0.958,0.138c0.302,0.488,0.566,0.997,0.852,1.493
	c0.095,0.167,0.203,0.329,0.397,0.444c0-0.016-0.003-0.032-0.003-0.048c-0.775-1.371-1.316-2.863-1.884-4.329
	C66.694,25.409,66.526,24.97,66.357,24.532z"/>
<path fill="#E84542" d="M83.265,16.225c0.04,0.081,0.083,0.158,0.121,0.239C83.364,16.376,83.321,16.295,83.265,16.225z"/>
<path fill="#E84542" d="M59.58,15.86c-0.213,0.045-0.423,0.165-0.632,0.358c0.139,0.083,0.291,0.154,0.431,0.234
	C59.432,16.257,59.552,16.04,59.58,15.86z"/>
<g>
	<path fill="#E14941" d="M75.396,34.744c0.207-0.367,0.396-0.743,0.592-1.111c0.69,0.342,0.866,0.287,1.037-0.338
		c0.072-0.265,0.075-0.549,0.091-0.824c0.014-0.249,0.005-0.501,0.005-0.831c0.166,0.187,0.277,0.31,0.462,0.517
		c0.288-0.691,0.534-1.307,0.801-1.91c0.29-0.662,0.244-1.313,0.014-1.988c0.212,0.242,0.418,0.481,0.696,0.793
		c0.323-0.721,0.634-1.332,0.877-1.968c0.337-0.891,0.993-1.661,0.983-2.687c-0.003-0.147,0.2-0.295,0.305-0.441
		c0.52-0.711,1.184-1.374,0.796-2.351c0.214-0.08,0.495-0.097,0.554-0.221c0.405-0.843,0.786-1.702,1.123-2.572
		c0.06-0.151-0.075-0.513-0.204-0.563c-0.177-0.067-0.48,0.003-0.646,0.127c-0.369,0.276-0.707,0.603-1.017,0.944
		c-0.677,0.738-0.67,0.745-1.669,1.032c-0.212,0.062-0.446,0.132-0.6,0.274c-0.36,0.33-0.751,0.475-1.244,0.485
		c-0.223,0.003-0.444,0.23-0.67,0.35c-0.249,0.131-0.489,0.323-0.755,0.366c-0.915,0.154-1.031,0.233-1.214,1.135
		c-0.195-0.053-0.387-0.113-0.58-0.157c-0.382-0.086-1.396,0.345-1.562,0.69c-0.237,0.492,0.255,0.664,0.458,0.961
		c0.027,0.037,0.031,0.086,0.055,0.159c-0.79-0.439-0.79-0.439-1.13,0.105c-0.078-0.013-0.164-0.034-0.256-0.039
		c-0.106-0.007-0.215-0.001-0.321-0.001c-0.108,0.359-0.157,0.509-0.309,0.645c0.216,0.581,0.435,1.161,0.649,1.743
		c0.415,1.135,0.46,2.401,0.816,3.563c0.461,1.504,0.946,3.012,1.541,4.466C75.183,35.055,75.286,34.94,75.396,34.744z"/>
	<path fill="#E14941" d="M60.657,29.421c-0.402,0.13-0.721,0.52-0.997,0.731c-0.327,0.019-0.675-0.064-0.871,0.069
		c-0.482,0.343-0.894,0.783-1.335,1.185c-0.097,0.088-0.194,0.178-0.409,0.374c0.112-0.471,0.182-0.776,0.288-1.223
		c-0.343,0.166-0.567,0.245-0.761,0.371c-0.432,0.287-0.815,0.665-1.278,0.884c-0.843,0.397-1.47,0.907-1.505,1.916
		c0,0.023-0.051,0.044-0.105,0.091c-0.029-0.07-0.06-0.128-0.078-0.189c-0.389-1.24-0.683-1.353-1.895-0.759
		c-0.104,0.05-0.249,0.023-0.375,0.021c-0.803-0.031-1.606-0.069-2.411-0.102c-0.463-0.019-0.715,0.279-0.727,0.67
		c-0.006,0.173,0.286,0.467,0.489,0.519c1.203,0.31,2.418,0.56,3.625,0.839c0.109,0.026,0.198,0.135,0.296,0.207
		c0.262,0.188,0.508,0.408,0.792,0.557c0.638,0.334,1.288,0.642,1.943,0.941c0.314,0.143,0.685,0.399,0.967,0.33
		c0.603-0.142,0.978,0.052,1.347,0.479c0.134,0.151,0.38,0.286,0.57,0.28c0.134-0.003,0.262-0.258,0.397-0.402
		c0.353,0.506,0.79,0.875,1.433,0.952c0.47,0.058,0.94,0.132,1.399,0.237c0.358,0.086,0.698,0.304,1.057,0.332
		c0.438,0.037,0.881,0.064,1.321,0.086c-0.153-0.572-0.311-1.142-0.473-1.712C62.621,34.493,61.637,31.958,60.657,29.421z"/>
	<path fill="#E14941" d="M70.159,32.166c-0.556-0.617-1.011-1.288-1.409-1.989c0,0.016,0.003,0.032,0.003,0.048
		c-0.195-0.116-0.303-0.276-0.397-0.443c-0.285-0.497-0.55-1.007-0.852-1.494c-0.249-0.399-0.593-0.513-0.958-0.137
		c-0.275,0.281-0.516,0.595-0.767,0.888c-0.364-0.51-0.806-0.576-1.206-0.038c-0.247,0.332-0.345,0.794-0.438,1.217
		c-0.067,0.303-0.014,0.633-0.014,0.95c-0.075,0.009-0.153,0.017-0.229,0.024c-0.051-0.19-0.14-0.38-0.15-0.575
		c-0.021-0.387-0.006-0.777,0.008-1.166c0.013-0.444-0.222-0.627-0.625-0.556c-0.285,0.052-0.571,0.101-0.854,0.152
		c1.143,3.205,2.378,6.372,3.781,9.467c0.021-0.126,0.002-0.285-0.057-0.484c-0.109-0.369-0.235-0.727-0.354-1.091
		c0.211,0.134,0.315,0.313,0.417,0.495c0.152,0.272,0.262,0.593,0.475,0.807c0.171,0.174,0.501,0.342,0.701,0.29
		c0.197-0.05,0.363-0.369,0.456-0.603c0.088-0.219,0.059-0.483,0.088-0.772c0.389,0.394,0.397,1.151,1.168,0.963
		c0.93-0.228,0.999-0.9,0.764-1.812c0.728,0.974,1.435,1.054,2.199,0.323c-0.484-1.278-0.971-2.553-1.454-3.831
		C70.369,32.579,70.302,32.331,70.159,32.166z"/>
	<path fill="#E14941" d="M67.987,14.647c0.591,1.549,1.191,3.098,1.789,4.645c0.036-0.008,0.079-0.019,0.115-0.028
		c0.268,0.653,0.533,1.303,0.816,1.997c0.352-0.232,0.654-0.411,0.937-0.62c0.498-0.375,0.802-0.821,0.703-1.516
		c-0.051-0.346,0.126-0.724,0.198-1.088c0.066,0.006,0.135,0.012,0.201,0.02c0,0.432-0.027,0.867,0.006,1.3
		c0.042,0.604,0.259,0.769,0.859,0.75c0.774-0.025,1.379-0.341,1.778-1.137c0.186,0.562,0.468,0.584,0.857,0.404
		c0.191-0.089,0.434-0.098,0.649-0.095c0.62,0.007,1.01-0.287,1.234-0.85c0.126-0.312,0.283-0.611,0.428-0.916
		c0.096,0.126,0.107,0.217,0.096,0.305c-0.081,0.51,0.015,0.579,0.52,0.414c0.961-0.312,1.805-0.959,2.944-0.793
		c0.406,0.06,1.218-0.393,1.277-0.713c0.017-0.095,0.01-0.183-0.011-0.263c-0.038-0.081-0.081-0.158-0.121-0.239
		c-0.215-0.267-0.639-0.425-0.983-0.519c-0.817-0.22-1.665-0.326-2.496-0.484c-0.214-0.041-0.437-0.074-0.638-0.157
		c-0.415-0.173-0.877-0.6-1.217-0.515c-0.641,0.158-1.033-0.224-1.543-0.335c-1.147-0.25-2.33-0.35-3.504-0.469
		c-0.545-0.056-1.099-0.011-1.729-0.011c-0.375-0.604-1.072-0.393-1.652-0.29c-0.799,0.14-0.447,1.046-0.83,1.64
		c-0.022-0.254-0.017-0.383-0.05-0.499c-0.12-0.413,0.385-1.064-0.317-1.22c-0.214-0.046-0.448-0.029-0.682,0.009
		c0.159,0.409,0.316,0.82,0.471,1.229C68.061,14.62,68.023,14.633,67.987,14.647z"/>
	<path fill="#E14941" d="M53.637,22.388c0.237,0.167,0.401,0.438,0.598,0.664c-0.048,0.049-0.097,0.098-0.146,0.146
		c-0.313-0.18-0.615-0.383-0.944-0.536c-0.334-0.154-0.634-0.315-0.854,0.255c-0.254,0.653-0.615,1.26-1.17,1.764
		c-0.304,0.275-0.353,0.819-0.538,1.23c-0.099,0.22-0.197,0.469-0.368,0.62c-0.245,0.222-0.568,0.351-0.834,0.548
		c-0.375,0.279-0.617,0.595-0.674,1.131c-0.076,0.703-0.481,1.318-1.08,1.747c-0.542,0.386-0.909,1.291-0.759,1.944
		c0.097,0.427,0.382,0.54,0.724,0.269c0.376-0.301,0.714-0.656,1.112-0.922c0.399-0.269,0.852-0.456,1.382-0.729
		c0.783,0.519,1.386-0.251,2.128-0.549c-0.06-0.155-0.105-0.238-0.123-0.326c-0.062-0.312-0.113-0.623-0.17-0.936
		c0.285,0.096,0.588,0.154,0.851,0.29c0.755,0.391,0.748,0.403,1.07-0.305c0.91,0.072,1.191-0.302,0.891-1.191
		c-0.097-0.289-0.227-0.567-0.343-0.851c0.046-0.032,0.089-0.062,0.135-0.095c0.225,0.269,0.448,0.538,0.677,0.805
		c0.316,0.371,0.665,0.312,1.038,0.08c0.383-0.237,0.256-0.515,0.101-0.81c-0.174-0.333-0.34-0.67-0.51-1.006
		c0.042-0.026,0.083-0.055,0.123-0.082c0.121,0.101,0.25,0.194,0.362,0.305c0.797,0.787,0.783,0.768,1.724,0.11
		c0.322-0.227,0.718-0.374,1.102-0.471c-0.437-0.866-1.098-1.492-2.109-1.775c-0.827-0.229-1.355-0.784-1.649-1.566
		c-0.295-0.788-0.588-1.575-0.884-2.361c-0.372,0.455-0.692,0.956-1.036,1.433C53.141,21.664,53.138,22.038,53.637,22.388z"/>
	<path fill="#E14941" d="M61.904,21.321c-0.887,1.156-1.081,2.367-0.912,3.598c0.172,0.032,0.344,0.059,0.517,0.088
		c0.014-0.213,0.053-0.428,0.033-0.641c-0.018-0.233-0.087-0.464-0.135-0.695c0.269,0.284,0.423,0.603,0.624,0.885
		c0.318,0.439,0.67,0.833,1.301,0.816c0.509-0.015,1.026-0.015,1.525,0.063c0.715,0.111,0.953-0.117,0.717-0.814
		c-0.237-0.7-0.519-1.388-0.757-2.087c-0.071-0.198-0.072-0.42-0.104-0.632c0.046-0.01,0.096-0.021,0.144-0.031
		c0.097,0.173,0.206,0.343,0.292,0.522c0.3,0.615,0.576,1.247,0.907,1.845c0.062,0.119,0.179,0.207,0.301,0.292
		c-1.129-2.93-2.242-5.864-3.31-8.816c-0.062,0.269-0.116,0.544-0.192,0.808c-0.497-0.183-0.96-0.368-1.434-0.515
		c-0.068-0.021-0.246,0.129-0.281,0.23c-0.018,0.06-0.013,0.126-0.003,0.197c0.31,0.761,0.618,1.521,0.939,2.277
		C62.46,19.619,62.495,20.553,61.904,21.321z"/>
</g>
</svg>
